<svg width="13" height="12" viewBox="0 0 13 12" fill="none" xmlns="http://www.w3.org/2000/svg">
<path d="M4.125 3V1C4.125 0.792893 4.29289 0.625 4.5 0.625C4.70711 0.625 4.875 0.792893 4.875 1V3C4.875 3.20711 4.70711 3.375 4.5 3.375C4.29289 3.375 4.125 3.20711 4.125 3ZM8.125 3V1C8.125 0.792893 8.29289 0.625 8.5 0.625C8.70711 0.625 8.875 0.792893 8.875 1V3C8.875 3.20711 8.70711 3.375 8.5 3.375C8.29289 3.375 8.125 3.20711 8.125 3Z" fill="white"/>
<path d="M10.625 6C10.625 5.04662 10.6243 4.36929 10.5552 3.85547C10.496 3.41529 10.3916 3.1382 10.2246 2.93408L10.1489 2.85107C9.93734 2.63948 9.64758 2.51246 9.14453 2.44482C8.6307 2.37575 7.95337 2.375 7 2.375H6C5.04662 2.375 4.36929 2.37575 3.85547 2.44482C3.41529 2.50401 3.1382 2.60842 2.93408 2.77539L2.85107 2.85107C2.63947 3.06268 2.51246 3.35243 2.44482 3.85547C2.37575 4.36929 2.375 5.04662 2.375 6V7C2.375 7.95337 2.37575 8.6307 2.44482 9.14453C2.51246 9.64758 2.63948 9.93734 2.85107 10.1489L2.93408 10.2246C3.1382 10.3916 3.41529 10.496 3.85547 10.5552C4.36929 10.6243 5.04662 10.625 6 10.625H7C7.95337 10.625 8.6307 10.6243 9.14453 10.5552C9.64758 10.4875 9.93734 10.3605 10.1489 10.1489L10.2246 10.0659C10.3916 9.86182 10.496 9.58472 10.5552 9.14453C10.6243 8.6307 10.625 7.95337 10.625 7V6ZM11.375 7C11.375 7.9322 11.3757 8.6692 11.2983 9.24463C11.2244 9.79412 11.0739 10.2454 10.7471 10.6079L10.6792 10.6792C10.3051 11.0534 9.83078 11.2195 9.24463 11.2983C8.6692 11.3757 7.9322 11.375 7 11.375H6C5.06779 11.375 4.3308 11.3757 3.75537 11.2983C3.20588 11.2244 2.75464 11.0739 2.39209 10.7471L2.3208 10.6792C1.94664 10.3051 1.78048 9.83078 1.70166 9.24463C1.6243 8.6692 1.625 7.9322 1.625 7V6C1.625 5.06779 1.6243 4.33079 1.70166 3.75537C1.78048 3.16922 1.94665 2.69496 2.3208 2.3208L2.39209 2.25293C2.75465 1.92613 3.20588 1.77555 3.75537 1.70166C4.33079 1.6243 5.06779 1.625 6 1.625H7C7.9322 1.625 8.6692 1.6243 9.24463 1.70166C9.83078 1.78048 10.3051 1.94664 10.6792 2.3208L10.7471 2.39209C11.0739 2.75464 11.2244 3.20588 11.2983 3.75537C11.3757 4.3308 11.375 5.06779 11.375 6V7Z" fill="white"/>
<path d="M11 4.625C11.2071 4.625 11.375 4.79289 11.375 5C11.375 5.20711 11.2071 5.375 11 5.375H2C1.79289 5.375 1.625 5.20711 1.625 5C1.625 4.79289 1.79289 4.625 2 4.625H11Z" fill="white"/>
</svg>
