<svg width="16" height="16" viewBox="0 0 16 16" fill="none" xmlns="http://www.w3.org/2000/svg">
<path d="M13.1501 3.22007C13.9541 3.00303 14.7846 3.4564 15.0687 4.25262L15.1169 4.40887C15.2102 4.7711 15.1729 5.11644 15.0049 5.43361C14.8723 5.68389 14.671 5.89188 14.4476 6.07163L14.2184 6.2422C13.783 6.54544 13.3131 6.82689 12.8044 7.2728L12.5837 7.47463C12.1385 7.89996 11.6976 8.39487 11.2822 8.90627L10.876 9.42124C10.2352 10.2581 9.63302 11.1281 9.10449 12.03L9.10384 12.0293C8.83043 12.4975 8.34691 12.8011 7.80957 12.8307L7.7015 12.8334C7.15752 12.826 6.66387 12.5385 6.37467 12.0847L6.31999 11.9922C5.96347 11.3434 5.68198 11.0156 5.52116 10.8613L5.40202 10.7591C5.30569 10.689 5.20502 10.6317 5.0804 10.5606C4.9656 10.495 4.81764 10.411 4.68392 10.3034C4.54282 10.1899 4.40602 10.042 4.30827 9.83856C4.2112 9.63644 4.16699 9.40898 4.16699 9.15562C4.16703 8.25993 4.87026 7.50002 5.77832 7.50002L5.7985 7.50067C6.36955 7.52364 6.8658 7.7665 7.2653 8.05731L7.46322 8.21095C7.51732 8.25565 7.57072 8.30386 7.62533 8.35353C7.84374 8.0433 8.08485 7.71227 8.34408 7.37371L8.56934 7.08335C9.10752 6.39995 9.7267 5.68354 10.3896 5.05015L10.6735 4.78648C11.3522 4.17491 12.1391 3.60107 12.9899 3.2728L13.1501 3.22007ZM5.16699 9.15562C5.16699 9.29226 5.19009 9.36559 5.20931 9.40562C5.22779 9.44407 5.25621 9.48011 5.31087 9.52411C5.37308 9.57415 5.45225 9.62112 5.5765 9.69207C5.69079 9.75734 5.84146 9.84204 5.99056 9.95054L6.09408 10.0319C6.35295 10.2495 6.73878 10.6778 7.19629 11.5104L7.24186 11.5827C7.35792 11.7414 7.53412 11.8309 7.71517 11.8334L7.79199 11.8288C7.97091 11.8067 8.13918 11.6997 8.24121 11.5248V11.5241L8.4528 11.1719C8.95299 10.3538 9.50514 9.56697 10.0824 8.81317L10.5049 8.27671C10.9399 7.74101 11.4101 7.21325 11.8929 6.75197L12.1423 6.52411C12.7198 6.0183 13.2641 5.68837 13.6468 5.42189L13.8252 5.28843C13.981 5.16238 14.0724 5.05663 14.1208 4.96551C14.1638 4.88434 14.1855 4.79359 14.1475 4.65236L14.1273 4.58856C14.0111 4.26299 13.6927 4.10957 13.4066 4.18687L13.3499 4.20575C12.6565 4.47331 11.9755 4.96005 11.3467 5.52606L11.0804 5.7728C10.4615 6.36406 9.87441 7.04209 9.35579 7.70054L9.1377 7.98179C8.74642 8.49283 8.39637 8.98732 8.10579 9.41668C8.01878 9.54519 7.87723 9.62601 7.72233 9.63543C7.56741 9.6448 7.41667 9.58191 7.31478 9.46486C7.14267 9.26692 6.97881 9.10879 6.82585 8.98244L6.67676 8.8659C6.37579 8.64681 6.07044 8.5149 5.76595 8.50067C5.45151 8.50757 5.16703 8.77983 5.16699 9.15562Z" fill="#00AD79"/>
<path d="M0.833008 9.12889C0.833008 8.22273 1.55085 7.46352 2.46582 7.46352L2.48535 7.46417L2.5791 7.46743L2.59733 7.46873C2.64556 7.47241 2.69755 7.47839 2.75228 7.48696H2.75163C2.80668 7.49556 2.86485 7.50692 2.92546 7.52147L3.11491 7.57485L3.16309 7.59373C3.39446 7.69661 3.51498 7.95986 3.43457 8.20571C3.35399 8.45171 3.10074 8.59316 2.85319 8.53904L2.80371 8.52537L2.69238 8.49347L2.59733 8.47459C2.56877 8.47012 2.54351 8.46779 2.52181 8.46613V8.46548L2.46322 8.46352C2.12815 8.46486 1.83301 8.74888 1.83301 9.12889C1.83303 9.4508 2.04688 9.70629 2.31543 9.77537L2.36947 9.78644L2.44889 9.80597C2.47463 9.81455 2.49968 9.82519 2.52376 9.83787C2.56389 9.85903 2.61471 9.8896 2.6748 9.93293L2.77897 10.0137C3.04187 10.2321 3.43485 10.6633 3.90137 11.5032L3.94824 11.5768C4.06739 11.7379 4.24973 11.8308 4.43978 11.8333L4.49512 11.8314C4.62429 11.8211 4.74791 11.7696 4.84863 11.6829L4.889 11.651C5.09678 11.5062 5.3849 11.5395 5.55371 11.7357C5.72236 11.9319 5.71174 12.2211 5.53744 12.4049L5.50098 12.4407C5.24339 12.6624 4.92021 12.8006 4.5752 12.8281L4.42611 12.8333C3.87763 12.8259 3.37717 12.5394 3.08301 12.0827L3.02702 11.9889C2.55508 11.1392 2.21235 10.8352 2.09863 10.7506C1.36506 10.5788 0.833026 9.91054 0.833008 9.12889ZM9.82129 3.19985C10.0792 3.10139 10.3679 3.23039 10.4665 3.48826C10.5649 3.74619 10.4359 4.0349 10.1781 4.13345C9.46921 4.40404 8.77385 4.89622 8.13249 5.46743L7.86165 5.71613C7.61471 5.94955 7.37199 6.19706 7.13639 6.4518L7.09994 6.48761C6.90996 6.65557 6.61952 6.65566 6.42936 6.4798C6.2267 6.2923 6.21455 5.97548 6.40202 5.77277L6.78158 5.37498C6.91047 5.24404 7.04131 5.11514 7.17415 4.98957L7.46387 4.72394C8.15524 4.10761 8.95613 3.53015 9.82129 3.19985Z" fill="#00AD79"/>
</svg>
