<svg width="13" height="12" viewBox="0 0 13 12" fill="none" xmlns="http://www.w3.org/2000/svg">
<path d="M6.5 8.5C5.6632 8.5 4.93485 9.1325 4.55883 10.0656C4.37923 10.5113 4.63695 11 4.97939 11H8.0206C8.36305 11 8.62075 10.5113 8.44115 10.0656C8.06515 9.1325 7.3368 8.5 6.5 8.5Z" stroke="white" stroke-linecap="round"/>
<path d="M9.75 2.5H10.3511C10.9515 2.5 11.2517 2.5 11.4084 2.68868C11.565 2.87736 11.4999 3.16056 11.3696 3.72697L11.1742 4.57654C10.8804 5.8543 9.80545 6.8044 8.5 7" stroke="white" stroke-linecap="round" stroke-linejoin="round"/>
<path d="M3.25 2.5H2.6489C2.04846 2.5 1.74825 2.5 1.59162 2.68868C1.435 2.87736 1.50012 3.16056 1.63038 3.72697L1.82574 4.57654C2.11957 5.8543 3.19456 6.8044 4.5 7" stroke="white" stroke-linecap="round" stroke-linejoin="round"/>
<path d="M6.5 8.5C8.0104 8.5 9.2825 6.16895 9.66485 2.99545C9.7706 2.11779 9.8235 1.67897 9.5434 1.33948C9.26335 1 8.81115 1 7.9067 1H5.09329C4.18888 1 3.73667 1 3.45659 1.33948C3.17651 1.67897 3.22938 2.11779 3.33513 2.99545C3.7175 6.16895 4.98962 8.5 6.5 8.5Z" stroke="white" stroke-linecap="round"/>
</svg>
