<svg width="13" height="12" viewBox="0 0 13 12" fill="none" xmlns="http://www.w3.org/2000/svg">
<path d="M6.50054 0.625C8.41363 0.625 10.239 1.75666 11.003 3.54248L11.0665 3.69727C11.6887 5.29054 11.3043 6.65613 10.5289 7.83057C9.94254 8.71857 9.11621 9.52056 8.32915 10.2505L7.56499 10.957C7.27751 11.2262 6.89572 11.375 6.50054 11.375C6.10534 11.375 5.72357 11.2262 5.43608 10.957L5.43511 10.9565C4.46538 10.0431 3.256 9.0119 2.47368 7.82959C1.67237 6.61852 1.28766 5.20438 1.99858 3.54248L2.07329 3.37695C2.87669 1.68702 4.64726 0.625023 6.50054 0.625ZM6.50054 1.375C4.92181 1.37502 3.42393 2.28312 2.75054 3.69873L2.68804 3.8374C2.10128 5.20903 2.39799 6.35633 3.09917 7.41602C3.81917 8.50411 4.93258 9.45297 5.94829 10.4097H5.94878C6.09496 10.5465 6.29251 10.625 6.50054 10.625C6.70864 10.625 6.90666 10.5465 7.05278 10.4097L7.82622 9.69336C8.60241 8.97303 9.36358 8.23383 9.90288 7.41699C10.5814 6.38921 10.8804 5.27902 10.3658 3.96533L10.313 3.8374C9.67361 2.34273 8.13023 1.375 6.50054 1.375Z" fill="white"/>
<path d="M7.875 5.5C7.875 4.74061 7.25939 4.125 6.5 4.125C5.74061 4.125 5.125 4.74061 5.125 5.5C5.125 6.25939 5.74061 6.875 6.5 6.875C7.25939 6.875 7.875 6.25939 7.875 5.5ZM8.625 5.5C8.625 6.67361 7.67361 7.625 6.5 7.625C5.32639 7.625 4.375 6.67361 4.375 5.5C4.375 4.32639 5.32639 3.375 6.5 3.375C7.67361 3.375 8.625 4.32639 8.625 5.5Z" fill="white"/>
</svg>
