<svg width="16" height="16" viewBox="0 0 16 16" fill="none" xmlns="http://www.w3.org/2000/svg">
<path fill-rule="evenodd" clip-rule="evenodd" d="M11.3333 7.5C11.6095 7.5 11.8333 7.72386 11.8333 8V10.6667C11.8333 10.9761 11.7104 11.2728 11.4916 11.4916C11.2728 11.7104 10.9761 11.8333 10.6667 11.8333H8C7.72386 11.8333 7.5 11.6095 7.5 11.3333C7.5 11.0572 7.72386 10.8333 8 10.8333H10.6667C10.7109 10.8333 10.7533 10.8158 10.7845 10.7845C10.8158 10.7533 10.8333 10.7109 10.8333 10.6667V8C10.8333 7.72386 11.0572 7.5 11.3333 7.5Z" fill="#565656"/>
<path fill-rule="evenodd" clip-rule="evenodd" d="M10.833 2C10.833 1.72386 11.0569 1.5 11.333 1.5H12.6663C13.1526 1.5 13.6189 1.69315 13.9627 2.03697C14.3065 2.38079 14.4997 2.8471 14.4997 3.33333V4.66667C14.4997 4.94281 14.2758 5.16667 13.9997 5.16667C13.7235 5.16667 13.4997 4.94281 13.4997 4.66667V3.33333C13.4997 3.11232 13.4119 2.90036 13.2556 2.74408C13.0993 2.5878 12.8874 2.5 12.6663 2.5H11.333C11.0569 2.5 10.833 2.27614 10.833 2Z" fill="#565656"/>
<path fill-rule="evenodd" clip-rule="evenodd" d="M11.333 4.16666C11.6092 4.16666 11.833 4.39051 11.833 4.66666V5.33332C11.833 5.60947 11.6092 5.83332 11.333 5.83332C11.0569 5.83332 10.833 5.60947 10.833 5.33332V4.66666C10.833 4.39051 11.0569 4.16666 11.333 4.16666Z" fill="#565656"/>
<path fill-rule="evenodd" clip-rule="evenodd" d="M13.9997 10.8333C14.2758 10.8333 14.4997 11.0572 14.4997 11.3333V12.6667C14.4997 13.1529 14.3065 13.6192 13.9627 13.963C13.6189 14.3069 13.1526 14.5 12.6663 14.5H11.333C11.0569 14.5 10.833 14.2762 10.833 14C10.833 13.7239 11.0569 13.5 11.333 13.5H12.6663C12.8874 13.5 13.0993 13.4122 13.2556 13.2559C13.4119 13.0997 13.4997 12.8877 13.4997 12.6667V11.3333C13.4997 11.0572 13.7235 10.8333 13.9997 10.8333Z" fill="#565656"/>
<path fill-rule="evenodd" clip-rule="evenodd" d="M3.33333 2.5C3.11232 2.5 2.90036 2.5878 2.74408 2.74408C2.5878 2.90036 2.5 3.11232 2.5 3.33333V4.66667C2.5 4.94281 2.27614 5.16667 2 5.16667C1.72386 5.16667 1.5 4.94281 1.5 4.66667V3.33333C1.5 2.8471 1.69315 2.38079 2.03697 2.03697C2.38079 1.69315 2.8471 1.5 3.33333 1.5H4.66667C4.94281 1.5 5.16667 1.72386 5.16667 2C5.16667 2.27614 4.94281 2.5 4.66667 2.5H3.33333Z" fill="#565656"/>
<path fill-rule="evenodd" clip-rule="evenodd" d="M4.16699 11.3333C4.16699 11.0572 4.39085 10.8333 4.66699 10.8333H4.67366C4.9498 10.8333 5.17366 11.0572 5.17366 11.3333C5.17366 11.6095 4.9498 11.8333 4.67366 11.8333H4.66699C4.39085 11.8333 4.16699 11.6095 4.16699 11.3333Z" fill="#565656"/>
<path fill-rule="evenodd" clip-rule="evenodd" d="M2 10.8333C2.27614 10.8333 2.5 11.0572 2.5 11.3333V12.6667C2.5 12.8877 2.5878 13.0997 2.74408 13.2559C2.90036 13.4122 3.11232 13.5 3.33333 13.5H4.66667C4.94281 13.5 5.16667 13.7239 5.16667 14C5.16667 14.2762 4.94281 14.5 4.66667 14.5H3.33333C2.8471 14.5 2.38079 14.3069 2.03697 13.963C1.69315 13.6192 1.5 13.1529 1.5 12.6667V11.3333C1.5 11.0572 1.72386 10.8333 2 10.8333Z" fill="#171717"/>
<path fill-rule="evenodd" clip-rule="evenodd" d="M5.33366 5.16666C5.24161 5.16666 5.16699 5.24128 5.16699 5.33332V7.33332C5.16699 7.42537 5.24161 7.49999 5.33366 7.49999H7.33366C7.42571 7.49999 7.50033 7.42537 7.50033 7.33332V5.33332C7.50033 5.24128 7.42571 5.16666 7.33366 5.16666H5.33366ZM4.16699 5.33332C4.16699 4.68899 4.68933 4.16666 5.33366 4.16666H7.33366C7.97799 4.16666 8.50033 4.68899 8.50033 5.33332V7.33332C8.50033 7.97766 7.97799 8.49999 7.33366 8.49999H5.33366C4.68933 8.49999 4.16699 7.97766 4.16699 7.33332V5.33332Z" fill="#171717"/>
</svg>
