<svg width="16" height="16" viewBox="0 0 16 16" fill="none" xmlns="http://www.w3.org/2000/svg">
<path d="M14.1664 10.2813C14.1664 9.55438 14.1625 9.22327 14.1026 8.95705L14.0733 8.84638C14.0072 8.62823 13.8952 8.42512 13.6488 8.04559L13.3545 7.60028L12.917 6.94403L12.8714 6.85875L12.2302 5.32033V5.31968C11.9776 4.71358 11.8029 4.29589 11.6319 3.98505C11.4666 3.68476 11.3263 3.52611 11.1651 3.41864C11.0038 3.31117 10.8033 3.2428 10.4626 3.20575C10.1097 3.1674 9.65675 3.16669 8.99969 3.16669H6.99969C6.34265 3.16669 5.88967 3.1674 5.5368 3.20575C5.19606 3.2428 4.99553 3.31117 4.83433 3.41864C4.67312 3.52611 4.53279 3.68477 4.36753 3.98505C4.28199 4.1405 4.19532 4.3226 4.09865 4.54169L3.76922 5.32033L3.12795 6.85875C3.11555 6.88849 3.10025 6.91722 3.08238 6.94403L2.64488 7.60028C2.24167 8.20507 2.06104 8.48287 1.96323 8.73765L1.92613 8.84638C1.83812 9.13704 1.83303 9.45087 1.83303 10.2813V12.3334C1.83303 12.4955 1.83332 12.5921 1.83823 12.6641C1.84096 12.704 1.84444 12.7233 1.84605 12.7305H1.8454C1.86231 12.7713 1.89506 12.8041 1.93589 12.821L2.0023 12.8281C2.07431 12.8331 2.17088 12.8334 2.33303 12.8334C2.49517 12.8334 2.59175 12.8331 2.66376 12.8281C2.73128 12.8235 2.73997 12.8169 2.73016 12.821L2.75881 12.8054C2.78604 12.7872 2.80727 12.7612 2.82001 12.7305L2.82782 12.6641C2.83273 12.5921 2.83303 12.4955 2.83303 12.3334C2.83303 12.1849 2.83307 12.0482 2.84084 11.9343C2.84893 11.8159 2.86681 11.6856 2.92157 11.5534L2.97105 11.4492C3.09774 11.2126 3.30292 11.0255 3.55308 10.9219L3.65204 10.8874C3.74989 10.8588 3.84523 10.8472 3.93394 10.8412C4.04787 10.8334 4.18455 10.8334 4.33303 10.8334H11.6664C11.8148 10.8334 11.9515 10.8334 12.0654 10.8412C12.1838 10.8493 12.3141 10.8672 12.4463 10.9219L12.5505 10.9714C12.7533 11.08 12.9197 11.2464 13.0283 11.4492L13.0778 11.5534L13.1123 11.6524C13.1409 11.7502 13.1525 11.8456 13.1585 11.9343C13.1663 12.0482 13.1664 12.1849 13.1664 12.3334C13.1664 12.4955 13.1667 12.5921 13.1716 12.6641C13.1743 12.7039 13.1778 12.7233 13.1794 12.7305H13.1787C13.1956 12.7711 13.2281 12.8033 13.2686 12.8203H13.2692C13.2764 12.8219 13.2958 12.8254 13.3356 12.8281C13.4076 12.8331 13.5042 12.8334 13.6664 12.8334C13.8285 12.8334 13.9251 12.8331 13.9971 12.8281L14.0635 12.8203C14.1042 12.8034 14.1364 12.7712 14.1533 12.7305L14.1612 12.6641C14.1661 12.5921 14.1664 12.4955 14.1664 12.3334V10.2813ZM15.1664 12.3334C15.1664 12.4818 15.1663 12.6185 15.1585 12.7324C15.1525 12.8211 15.1409 12.9165 15.1123 13.0143L15.0778 13.1133C14.9742 13.3634 14.7871 13.5686 14.5505 13.6953L14.4463 13.7448C14.3141 13.7995 14.1838 13.8175 14.0654 13.8255C13.9515 13.8333 13.8148 13.8334 13.6664 13.8334C13.5179 13.8334 13.3812 13.8333 13.2673 13.8255C13.1786 13.8195 13.0832 13.8079 12.9854 13.7793L12.8864 13.7448C12.6363 13.6412 12.4311 13.4541 12.3044 13.2175L12.2549 13.1133C12.2002 12.9811 12.1823 12.8508 12.1742 12.7324C12.1664 12.6185 12.1664 12.4818 12.1664 12.3334C12.1664 12.1712 12.1661 12.0746 12.1612 12.0026C12.1584 11.9628 12.155 11.9434 12.1533 11.9362V11.9356C12.1363 11.8951 12.1041 11.8625 12.0635 11.8457V11.8464C12.0563 11.8448 12.0369 11.8413 11.9971 11.8386C11.9251 11.8337 11.8285 11.8334 11.6664 11.8334H4.33303C4.17088 11.8334 4.07431 11.8337 4.0023 11.8386L3.93589 11.8457C3.89521 11.8626 3.86237 11.8949 3.8454 11.9356L3.84605 11.9362C3.84444 11.9434 3.84096 11.9627 3.83823 12.0026C3.83332 12.0746 3.83303 12.1712 3.83303 12.3334C3.83303 12.4818 3.83299 12.6185 3.82521 12.7324C3.81915 12.8211 3.80761 12.9165 3.77899 13.0143L3.74448 13.1133C3.64087 13.3634 3.45379 13.5686 3.21714 13.6953L3.11297 13.7448C2.98077 13.7996 2.85045 13.8175 2.73211 13.8255C2.61818 13.8333 2.4815 13.8334 2.33303 13.8334C2.18455 13.8334 2.04787 13.8333 1.93394 13.8255C1.84523 13.8195 1.74989 13.8079 1.65204 13.7793L1.55308 13.7448C1.30292 13.6412 1.09774 13.4541 0.971047 13.2175L0.921568 13.1133C0.866811 12.9811 0.84893 12.8508 0.840839 12.7324C0.833065 12.6185 0.833026 12.4818 0.833026 12.3334V10.2813C0.833025 9.50917 0.828339 9.0216 0.969094 8.55666L1.02769 8.38414C1.18044 7.98667 1.438 7.60784 1.81284 7.04559L2.223 6.42906L2.84605 4.93622L3.18394 4.13804C3.28942 3.89926 3.39018 3.68743 3.49188 3.50262C3.70112 3.12249 3.93709 2.81498 4.27964 2.58661C4.62228 2.35818 4.99721 2.25853 5.42873 2.21161C5.84805 2.16603 6.36439 2.16669 6.99969 2.16669H8.99969C9.635 2.16669 10.1513 2.16603 10.5707 2.21161C11.0022 2.25853 11.3771 2.35819 11.7197 2.58661C12.0623 2.81498 12.2983 3.12249 12.5075 3.50262C12.6092 3.68742 12.71 3.89926 12.8154 4.13804L13.1533 4.93622L13.7757 6.42906L14.1865 7.04559L14.4795 7.48765C14.744 7.89385 14.9247 8.20792 15.0303 8.55666L15.0765 8.73244C15.1699 9.14784 15.1664 9.6056 15.1664 10.2813V12.3334Z" fill="#565656"/>
<path d="M14.4093 5.23827C14.6264 5.1073 14.9115 5.1595 15.0669 5.36653C15.2222 5.57365 15.1927 5.86209 15.0063 6.03385L14.9673 6.0664L13.6339 7.0664C13.5806 7.10638 13.5196 7.13552 13.4549 7.15168L12.2811 7.4453C12.1359 7.48153 11.9864 7.49999 11.8364 7.49999H4.16454C4.05214 7.49999 3.9401 7.48984 3.82991 7.46939L3.71988 7.4453L2.54605 7.15168C2.5137 7.1436 2.48226 7.1321 2.4523 7.11783L2.36702 7.0664L1.03368 6.0664L0.994622 6.03385C0.80824 5.86209 0.778732 5.57365 0.934075 5.36653C1.08951 5.1595 1.3746 5.1073 1.59163 5.23827L1.63394 5.26692L2.8859 6.20572L3.96272 6.47525H3.96207C4.02834 6.4918 4.09653 6.49999 4.16454 6.49999H11.8364C11.9043 6.49999 11.972 6.49173 12.0382 6.47525L13.1144 6.20572L14.367 5.26692L14.4093 5.23827Z" fill="#565656"/>
<path d="M11.5 9.33982V9.33331C11.5 9.05717 11.7239 8.83331 12 8.83331C12.2761 8.83331 12.5 9.05717 12.5 9.33331V9.33982C12.5 9.61597 12.2761 9.83982 12 9.83982C11.7239 9.83982 11.5 9.61597 11.5 9.33982Z" fill="#565656"/>
<path d="M3.5 9.33982V9.33331C3.5 9.05717 3.72386 8.83331 4 8.83331C4.27614 8.83331 4.5 9.05717 4.5 9.33331V9.33982C4.5 9.61597 4.27614 9.83982 4 9.83982C3.72386 9.83982 3.5 9.61597 3.5 9.33982Z" fill="#565656"/>
</svg>
