<svg width="16" height="16" viewBox="0 0 16 16" fill="none" xmlns="http://www.w3.org/2000/svg">
<path d="M13.1868 12.3131L12.4798 13.0202L3.14648 3.68683L3.85352 2.9798L13.1868 12.3131Z" fill="#565656"/>
<path d="M14.3333 7.99998C14.3333 4.59422 11.5724 1.83331 8.16667 1.83331C4.76091 1.83331 2 4.59422 2 7.99998C2 11.4057 4.76091 14.1666 8.16667 14.1666C11.5724 14.1666 14.3333 11.4057 14.3333 7.99998ZM15.3333 7.99998C15.3333 11.958 12.1247 15.1666 8.16667 15.1666C4.20862 15.1666 1 11.958 1 7.99998C1 4.04194 4.20862 0.833313 8.16667 0.833313C12.1247 0.833313 15.3333 4.04194 15.3333 7.99998Z" fill="#565656"/>
</svg>
