<svg width="16" height="16" viewBox="0 0 16 16" fill="none" xmlns="http://www.w3.org/2000/svg">
<path fill-rule="evenodd" clip-rule="evenodd" d="M2.16699 7.66666C2.16699 6.83825 2.83856 6.16666 3.66699 6.16666C4.49543 6.16666 5.16699 6.83825 5.16699 7.66666V12C5.16699 12.2761 4.94313 12.5 4.66699 12.5H4.00033C2.98781 12.5 2.16699 11.6792 2.16699 10.6667V7.66666ZM3.66699 7.16666C3.39085 7.16666 3.16699 7.39053 3.16699 7.66666V10.6667C3.16699 11.1269 3.54008 11.5 4.00033 11.5H4.16699V7.66666C4.16699 7.39053 3.94313 7.16666 3.66699 7.16666Z" fill="#565656"/>
<path fill-rule="evenodd" clip-rule="evenodd" d="M10.833 7.66666C10.833 6.83825 11.5046 6.16666 12.333 6.16666C13.1614 6.16666 13.833 6.83825 13.833 7.66666V10.6667C13.833 11.6792 13.0122 12.5 11.9997 12.5H11.333C11.0569 12.5 10.833 12.2761 10.833 12V7.66666ZM12.333 7.16666C12.0569 7.16666 11.833 7.39053 11.833 7.66666V11.5H11.9997C12.4599 11.5 12.833 11.1269 12.833 10.6667V7.66666C12.833 7.39053 12.6091 7.16666 12.333 7.16666Z" fill="#565656"/>
<path fill-rule="evenodd" clip-rule="evenodd" d="M4.16699 9.33334C4.16699 9.0572 4.39085 8.83334 4.66699 8.83334H11.3337C11.6098 8.83334 11.8337 9.0572 11.8337 9.33334V12C11.8337 12.2762 11.6098 12.5 11.3337 12.5H4.66699C4.39085 12.5 4.16699 12.2762 4.16699 12V9.33334ZM5.16699 9.83334V11.5H10.8337V9.83334H5.16699Z" fill="#565656"/>
<path fill-rule="evenodd" clip-rule="evenodd" d="M5.83301 12C5.83301 11.7239 6.05687 11.5 6.33301 11.5H9.66634C9.94248 11.5 10.1663 11.7239 10.1663 12V14.6667C10.1663 14.9428 9.94248 15.1667 9.66634 15.1667H6.33301C6.05687 15.1667 5.83301 14.9428 5.83301 14.6667V12ZM6.83301 12.5V14.1667H9.16634V12.5H6.83301Z" fill="#565656"/>
<path fill-rule="evenodd" clip-rule="evenodd" d="M4.16699 14.6667C4.16699 14.3905 4.39085 14.1667 4.66699 14.1667H11.3337C11.6098 14.1667 11.8337 14.3905 11.8337 14.6667C11.8337 14.9428 11.6098 15.1667 11.3337 15.1667H4.66699C4.39085 15.1667 4.16699 14.9428 4.16699 14.6667Z" fill="#565656"/>
<path fill-rule="evenodd" clip-rule="evenodd" d="M7.63041 0.833344H8.37024C9.28196 0.83333 10.0168 0.833319 10.5948 0.911026C11.1949 0.991704 11.7001 1.1643 12.1014 1.56557C12.5027 1.96685 12.6753 2.4721 12.756 3.07217C12.8337 3.65015 12.8337 4.38504 12.8337 5.29677V6.66668C12.8337 6.94282 12.6098 7.16668 12.3337 7.16668C12.0575 7.16668 11.8337 6.94282 11.8337 6.66668V5.33334C11.8337 4.3764 11.8326 3.70899 11.7649 3.20543C11.6991 2.71624 11.5788 2.4572 11.3943 2.27269C11.2098 2.08818 10.9507 1.96788 10.4616 1.90211C9.958 1.83441 9.29059 1.83334 8.33366 1.83334H7.66699C6.71005 1.83334 6.04264 1.83441 5.53907 1.90211C5.04989 1.96788 4.79084 2.08818 4.60633 2.27268C4.42182 2.45719 4.30153 2.71624 4.23576 3.20542C4.16805 3.70899 4.16699 4.3764 4.16699 5.33334V6.66668C4.16699 6.94282 3.94314 7.16668 3.66699 7.16668C3.39085 7.16668 3.16699 6.94282 3.16699 6.66668L3.16699 5.29676C3.16698 4.38503 3.16697 3.65015 3.24467 3.07218C3.32535 2.4721 3.49795 1.96686 3.89923 1.56558C4.3005 1.1643 4.80575 0.991704 5.40583 0.911026C5.9838 0.833319 6.71868 0.83333 7.63041 0.833344Z" fill="#565656"/>
</svg>
