<svg width="16" height="16" viewBox="0 0 16 16" fill="none" xmlns="http://www.w3.org/2000/svg">
<path d="M12.6663 13.1667C12.9425 13.1667 13.1663 13.3905 13.1663 13.6667C13.1663 13.9428 12.9425 14.1667 12.6663 14.1667H3.33301C3.05687 14.1667 2.83301 13.9428 2.83301 13.6667C2.83301 13.3905 3.05687 13.1667 3.33301 13.1667H12.6663Z" fill="#565656"/>
<path d="M7.99967 1.83331C8.38455 1.83331 8.74343 2.03661 8.93782 2.37172L10.4144 4.91925L10.7412 5.47264C10.8339 5.62362 10.9132 5.74366 10.9886 5.84047C11.1305 6.02268 11.2091 6.05698 11.2627 6.06964L11.3102 6.07615C11.3667 6.07804 11.4541 6.06214 11.6103 5.98761C11.8318 5.88195 12.1095 5.70094 12.5361 5.42055L13.3577 4.88019L13.4456 4.8281C13.8934 4.58684 14.4544 4.66107 14.8226 5.02407L14.8792 5.08396C15.149 5.39064 15.2383 5.81952 15.1058 6.21157L15.1038 6.21613L13.6071 10.4928C13.4976 10.8055 13.4027 11.0795 13.2985 11.2956C13.1888 11.5231 13.0484 11.7311 12.8245 11.89C12.6007 12.0487 12.3581 12.1122 12.1071 12.1406C11.8688 12.1675 11.5789 12.1666 11.2477 12.1666H4.75162C4.42048 12.1666 4.13055 12.1675 3.89225 12.1406C3.67263 12.1158 3.45924 12.0641 3.25944 11.9453L3.1748 11.89C2.95096 11.7312 2.81058 11.5231 2.70084 11.2956C2.64874 11.1875 2.59899 11.0649 2.5485 10.9303L2.39225 10.4928L0.895505 6.21613L0.893551 6.21157C0.752104 5.79326 0.863328 5.3331 1.17675 5.02407L1.25293 4.95506C1.64544 4.63077 2.21036 4.59687 2.6416 4.88019L3.46321 5.42055L4.00293 5.76951C4.15339 5.86308 4.27823 5.93477 4.38899 5.98761C4.59736 6.08699 4.68304 6.08229 4.73665 6.06964L4.78222 6.05467C4.83355 6.03114 4.90422 5.97724 5.01074 5.84047C5.1615 5.64687 5.32897 5.36089 5.58496 4.91925L7.06152 2.37172L7.1416 2.25258C7.3458 1.98904 7.6628 1.83331 7.99967 1.83331ZM7.99967 2.83331C7.97483 2.83331 7.95316 2.84293 7.93847 2.8574L7.9261 2.87368L6.45019 5.42055C6.20871 5.83716 6.00258 6.19467 5.7998 6.45506C5.6145 6.69297 5.3955 6.899 5.09863 7.00454L4.96647 7.04295C4.60095 7.12924 4.26958 7.03825 3.95866 6.88995C3.80976 6.81893 3.64913 6.7268 3.47558 6.61912L2.91373 6.25584L2.09277 5.71613C2.03372 5.67732 1.95684 5.67958 1.90136 5.71743L1.87858 5.73631C1.83593 5.77852 1.82296 5.83844 1.84082 5.89126L3.33626 10.1621L3.48535 10.5794C3.5279 10.6931 3.56489 10.7846 3.60188 10.8613C3.67015 11.0028 3.71689 11.0486 3.75293 11.0742L3.78548 11.0944C3.8245 11.1141 3.88695 11.1332 4.00423 11.1465C4.17348 11.1656 4.39767 11.1666 4.75162 11.1666H11.2477C11.6017 11.1666 11.8259 11.1656 11.9951 11.1465C12.1516 11.1287 12.2103 11.0998 12.2464 11.0742C12.2824 11.0486 12.3292 11.0029 12.3975 10.8613C12.4715 10.7078 12.5461 10.4963 12.6631 10.1621L14.1585 5.89126C14.1719 5.85156 14.1677 5.80789 14.1468 5.77081L14.1208 5.73631C14.0721 5.68836 13.9966 5.67475 13.9333 5.7018L13.9066 5.71613L13.0856 6.25584H13.085C12.6826 6.52026 12.3385 6.74788 12.0407 6.88995C11.7686 7.01971 11.4808 7.10603 11.1683 7.06769L11.0329 7.04295C10.6673 6.95656 10.4112 6.72688 10.1995 6.45506C10.0982 6.32494 9.99596 6.17062 9.88899 5.99672L9.54915 5.42055L8.07324 2.87368C8.06012 2.85105 8.0328 2.83331 7.99967 2.83331Z" fill="#565656"/>
</svg>
