<svg width="17" height="16" viewBox="0 0 17 16" fill="none" xmlns="http://www.w3.org/2000/svg">
<path fill-rule="evenodd" clip-rule="evenodd" d="M11.4317 2.24267C11.6659 2.38903 11.7371 2.6975 11.5907 2.93167L4.92407 13.5983C4.77771 13.8325 4.46924 13.9037 4.23507 13.7573C4.0009 13.611 3.92971 13.3025 4.07607 13.0683L10.7427 2.40167C10.8891 2.1675 11.1976 2.09632 11.4317 2.24267Z" fill="#AAAAAA"/>
<path fill-rule="evenodd" clip-rule="evenodd" d="M2.2765 2.21945C2.52349 2.09596 2.82383 2.19607 2.94732 2.44306L5.16678 6.88197L7.38623 2.44306C7.50972 2.19607 7.81006 2.09596 8.05705 2.21945C8.30404 2.34295 8.40415 2.64328 8.28066 2.89027L5.61399 8.22361C5.52929 8.393 5.35616 8.5 5.16678 8.5C4.97739 8.5 4.80426 8.393 4.71956 8.22361L2.0529 2.89027C1.9294 2.64328 2.02951 2.34295 2.2765 2.21945Z" fill="#AAAAAA"/>
<path fill-rule="evenodd" clip-rule="evenodd" d="M9.3335 8.66667C9.3335 8.02232 9.85582 7.5 10.5002 7.5H12.5002C13.1445 7.5 13.6668 8.02232 13.6668 8.66667V9C13.6668 9.27614 13.443 9.5 13.1668 9.5C12.8907 9.5 12.6668 9.27614 12.6668 9V8.66667C12.6668 8.57461 12.5922 8.5 12.5002 8.5H10.5002C10.4081 8.5 10.3335 8.57461 10.3335 8.66667V10C10.3335 10.0921 10.4081 10.1667 10.5002 10.1667H12.5002C13.1445 10.1667 13.6668 10.689 13.6668 11.3333V12.6667C13.6668 13.311 13.1445 13.8333 12.5002 13.8333H10.5002C9.85582 13.8333 9.3335 13.311 9.3335 12.6667V12.3333C9.3335 12.0572 9.55735 11.8333 9.8335 11.8333C10.1096 11.8333 10.3335 12.0572 10.3335 12.3333V12.6667C10.3335 12.7587 10.4081 12.8333 10.5002 12.8333H12.5002C12.5922 12.8333 12.6668 12.7587 12.6668 12.6667V11.3333C12.6668 11.2413 12.5922 11.1667 12.5002 11.1667H10.5002C9.85582 11.1667 9.3335 10.6443 9.3335 10V8.66667Z" fill="#AAAAAA"/>
</svg>
